<mxfile host="app.diagrams.net" modified="2023-06-02T09:01:26.625Z" agent="Mozilla/5.0 (Windows NT 10.0; Win64; x64) AppleWebKit/537.36 (KHTML, like Gecko) Chrome/113.0.0.0 Safari/537.36" etag="6tjkn4u_gnix2xSrJJjd" version="21.1.9" type="device">
  <diagram name="第 1 页" id="V1W0sLbI2GgZeyCbVdQ1">
    <mxGraphModel dx="1194" dy="682" grid="1" gridSize="10" guides="1" tooltips="1" connect="1" arrows="1" fold="1" page="1" pageScale="1" pageWidth="827" pageHeight="1169" math="0" shadow="0">
      <root>
        <mxCell id="0" />
        <mxCell id="1" parent="0" />
        <mxCell id="PUoqzCfMoi5RGJm65JOl-1" value="&lt;p style=&quot;margin:0px;margin-top:4px;text-align:center;&quot;&gt;&lt;i&gt;&amp;lt;&amp;lt;Interface&amp;gt;&amp;gt;&lt;br&gt;&lt;b&gt;Visitor&lt;/b&gt;&lt;/i&gt;&lt;/p&gt;&lt;hr size=&quot;1&quot;&gt;&lt;p style=&quot;margin:0px;margin-left:4px;&quot;&gt;&lt;/p&gt;&lt;p style=&quot;margin:0px;margin-left:4px;&quot;&gt;&lt;i&gt;+ visitConcreteElementA(ConcreteElementA)&lt;/i&gt;&lt;br&gt;&lt;/p&gt;&lt;p style=&quot;margin:0px;margin-left:4px;&quot;&gt;&lt;i style=&quot;border-color: var(--border-color);&quot;&gt;+ visitConcreteElementB(ConcreteElementB)&lt;/i&gt;&lt;i&gt;&lt;br&gt;&lt;/i&gt;&lt;/p&gt;" style="verticalAlign=top;align=left;overflow=fill;fontSize=12;fontFamily=Helvetica;html=1;" parent="1" vertex="1">
          <mxGeometry x="360" y="130" width="260" height="80" as="geometry" />
        </mxCell>
        <mxCell id="PUoqzCfMoi5RGJm65JOl-2" value="ConcreteVisitor1" style="swimlane;fontStyle=1;align=center;verticalAlign=top;childLayout=stackLayout;horizontal=1;startSize=29;horizontalStack=0;resizeParent=1;resizeParentMax=0;resizeLast=0;collapsible=1;marginBottom=0;" parent="1" vertex="1">
          <mxGeometry x="210" y="250" width="260" height="70" as="geometry" />
        </mxCell>
        <mxCell id="PUoqzCfMoi5RGJm65JOl-3" value="+ visitConcreteElementA(ConcreteElementA)&#xa;+ visitConcreteElementB(ConcreteElementB)" style="text;strokeColor=none;fillColor=none;align=left;verticalAlign=top;spacingLeft=4;spacingRight=4;overflow=hidden;rotatable=0;points=[[0,0.5],[1,0.5]];portConstraint=eastwest;fontStyle=0" parent="PUoqzCfMoi5RGJm65JOl-2" vertex="1">
          <mxGeometry y="29" width="260" height="41" as="geometry" />
        </mxCell>
        <mxCell id="PUoqzCfMoi5RGJm65JOl-4" value="ConcreteVisitor2" style="swimlane;fontStyle=1;align=center;verticalAlign=top;childLayout=stackLayout;horizontal=1;startSize=29;horizontalStack=0;resizeParent=1;resizeParentMax=0;resizeLast=0;collapsible=1;marginBottom=0;" parent="1" vertex="1">
          <mxGeometry x="520" y="250" width="260" height="70" as="geometry" />
        </mxCell>
        <mxCell id="PUoqzCfMoi5RGJm65JOl-5" value="+ visitConcreteElementA(ConcreteElementA)&#xa;+ visitConcreteElementB(ConcreteElementB)" style="text;strokeColor=none;fillColor=none;align=left;verticalAlign=top;spacingLeft=4;spacingRight=4;overflow=hidden;rotatable=0;points=[[0,0.5],[1,0.5]];portConstraint=eastwest;fontStyle=0" parent="PUoqzCfMoi5RGJm65JOl-4" vertex="1">
          <mxGeometry y="29" width="260" height="41" as="geometry" />
        </mxCell>
        <mxCell id="PUoqzCfMoi5RGJm65JOl-6" value="&lt;p style=&quot;margin:0px;margin-top:4px;text-align:center;&quot;&gt;&lt;i&gt;&amp;lt;&amp;lt;Interface&amp;gt;&amp;gt;&lt;br&gt;&lt;b&gt;Element&lt;/b&gt;&lt;/i&gt;&lt;/p&gt;&lt;hr size=&quot;1&quot;&gt;&lt;p style=&quot;margin:0px;margin-left:4px;&quot;&gt;&lt;/p&gt;&lt;p style=&quot;margin:0px;margin-left:4px;&quot;&gt;&lt;i&gt;+ accept(Visitor)&lt;/i&gt;&lt;/p&gt;" style="verticalAlign=top;align=left;overflow=fill;fontSize=12;fontFamily=Helvetica;html=1;" parent="1" vertex="1">
          <mxGeometry x="400" y="380" width="165" height="70" as="geometry" />
        </mxCell>
        <mxCell id="PUoqzCfMoi5RGJm65JOl-7" style="edgeStyle=orthogonalEdgeStyle;rounded=0;orthogonalLoop=1;jettySize=auto;html=1;endArrow=open;endFill=0;endSize=10;entryX=0;entryY=0.5;entryDx=0;entryDy=0;" parent="1" source="PUoqzCfMoi5RGJm65JOl-8" target="PUoqzCfMoi5RGJm65JOl-1" edge="1">
          <mxGeometry relative="1" as="geometry">
            <mxPoint x="240" y="170" as="targetPoint" />
          </mxGeometry>
        </mxCell>
        <mxCell id="PUoqzCfMoi5RGJm65JOl-8" value="Client" style="html=1;" parent="1" vertex="1">
          <mxGeometry x="40" y="151.38" width="87" height="37.25" as="geometry" />
        </mxCell>
        <mxCell id="PUoqzCfMoi5RGJm65JOl-9" value="ConcreteElementA" style="swimlane;fontStyle=1;align=center;verticalAlign=top;childLayout=stackLayout;horizontal=1;startSize=29;horizontalStack=0;resizeParent=1;resizeParentMax=0;resizeLast=0;collapsible=1;marginBottom=0;" parent="1" vertex="1">
          <mxGeometry x="240" y="514.5" width="180" height="70" as="geometry" />
        </mxCell>
        <mxCell id="PUoqzCfMoi5RGJm65JOl-10" value="+ accept(Visitor v)&#xa;+ operationA()&#xa;" style="text;strokeColor=none;fillColor=none;align=left;verticalAlign=top;spacingLeft=4;spacingRight=4;overflow=hidden;rotatable=0;points=[[0,0.5],[1,0.5]];portConstraint=eastwest;fontStyle=0" parent="PUoqzCfMoi5RGJm65JOl-9" vertex="1">
          <mxGeometry y="29" width="180" height="41" as="geometry" />
        </mxCell>
        <mxCell id="PUoqzCfMoi5RGJm65JOl-11" value="ConcreteElementB" style="swimlane;fontStyle=1;align=center;verticalAlign=top;childLayout=stackLayout;horizontal=1;startSize=29;horizontalStack=0;resizeParent=1;resizeParentMax=0;resizeLast=0;collapsible=1;marginBottom=0;" parent="1" vertex="1">
          <mxGeometry x="550" y="514.5" width="185" height="70" as="geometry" />
        </mxCell>
        <mxCell id="PUoqzCfMoi5RGJm65JOl-12" value="+ accept(Visitor v)&#xa;+ operationB()&#xa;" style="text;strokeColor=none;fillColor=none;align=left;verticalAlign=top;spacingLeft=4;spacingRight=4;overflow=hidden;rotatable=0;points=[[0,0.5],[1,0.5]];portConstraint=eastwest;fontStyle=0" parent="PUoqzCfMoi5RGJm65JOl-11" vertex="1">
          <mxGeometry y="29" width="185" height="41" as="geometry" />
        </mxCell>
        <mxCell id="PUoqzCfMoi5RGJm65JOl-15" value="" style="endArrow=block;endSize=10;endFill=0;shadow=0;strokeWidth=1;rounded=0;edgeStyle=elbowEdgeStyle;elbow=vertical;entryX=0.5;entryY=1;entryDx=0;entryDy=0;labelBackgroundColor=none;fontColor=default;dashed=1;" parent="1" source="PUoqzCfMoi5RGJm65JOl-2" target="PUoqzCfMoi5RGJm65JOl-1" edge="1">
          <mxGeometry width="160" relative="1" as="geometry">
            <mxPoint x="323" y="324" as="sourcePoint" />
            <mxPoint x="322" y="242" as="targetPoint" />
          </mxGeometry>
        </mxCell>
        <mxCell id="PUoqzCfMoi5RGJm65JOl-16" value="" style="endArrow=block;endSize=10;endFill=0;shadow=0;strokeWidth=1;rounded=0;edgeStyle=elbowEdgeStyle;elbow=vertical;labelBackgroundColor=none;fontColor=default;dashed=1;" parent="1" source="PUoqzCfMoi5RGJm65JOl-4" target="PUoqzCfMoi5RGJm65JOl-1" edge="1">
          <mxGeometry width="160" relative="1" as="geometry">
            <mxPoint x="333" y="334" as="sourcePoint" />
            <mxPoint x="332" y="252" as="targetPoint" />
          </mxGeometry>
        </mxCell>
        <mxCell id="PUoqzCfMoi5RGJm65JOl-17" value="" style="endArrow=block;endSize=10;endFill=0;shadow=0;strokeWidth=1;rounded=0;edgeStyle=elbowEdgeStyle;elbow=vertical;entryX=0.5;entryY=1;entryDx=0;entryDy=0;exitX=0.5;exitY=0;exitDx=0;exitDy=0;labelBackgroundColor=none;fontColor=default;dashed=1;" parent="1" source="PUoqzCfMoi5RGJm65JOl-11" target="PUoqzCfMoi5RGJm65JOl-6" edge="1">
          <mxGeometry width="160" relative="1" as="geometry">
            <mxPoint x="343" y="344" as="sourcePoint" />
            <mxPoint x="342" y="262" as="targetPoint" />
          </mxGeometry>
        </mxCell>
        <mxCell id="PUoqzCfMoi5RGJm65JOl-18" value="" style="endArrow=block;endSize=10;endFill=0;shadow=0;strokeWidth=1;rounded=0;edgeStyle=elbowEdgeStyle;elbow=vertical;entryX=0.5;entryY=1;entryDx=0;entryDy=0;exitX=0.456;exitY=0.007;exitDx=0;exitDy=0;labelBackgroundColor=none;fontColor=default;exitPerimeter=0;dashed=1;" parent="1" source="PUoqzCfMoi5RGJm65JOl-9" target="PUoqzCfMoi5RGJm65JOl-6" edge="1">
          <mxGeometry width="160" relative="1" as="geometry">
            <mxPoint x="653" y="525" as="sourcePoint" />
            <mxPoint x="493" y="460" as="targetPoint" />
          </mxGeometry>
        </mxCell>
        <mxCell id="PUoqzCfMoi5RGJm65JOl-19" value="&lt;div style=&quot;border-color: var(--border-color);&quot;&gt;v.visitConcreteElementA(this)&lt;/div&gt;" style="shape=note2;boundedLbl=1;whiteSpace=wrap;html=1;size=25;verticalAlign=middle;align=left;labelPosition=center;verticalLabelPosition=middle;" parent="1" vertex="1">
          <mxGeometry x="290" y="630" width="190" height="50" as="geometry" />
        </mxCell>
        <mxCell id="PUoqzCfMoi5RGJm65JOl-20" value="" style="html=1;verticalAlign=bottom;labelBackgroundColor=none;startArrow=oval;startFill=0;startSize=8;endArrow=none;rounded=0;dashed=1;dashPattern=8 8;entryX=0.4;entryY=-0.08;entryDx=0;entryDy=0;entryPerimeter=0;" parent="1" target="PUoqzCfMoi5RGJm65JOl-19" edge="1">
          <mxGeometry x="-0.0549" y="19" relative="1" as="geometry">
            <mxPoint x="356.2007575757575" y="556.5" as="sourcePoint" />
            <mxPoint x="385.5" y="602" as="targetPoint" />
            <mxPoint x="-1" as="offset" />
          </mxGeometry>
        </mxCell>
        <mxCell id="PUoqzCfMoi5RGJm65JOl-21" value="&lt;div style=&quot;border-color: var(--border-color);&quot;&gt;v.visitConcreteElementB(this)&lt;/div&gt;" style="shape=note2;boundedLbl=1;whiteSpace=wrap;html=1;size=25;verticalAlign=middle;align=left;labelPosition=center;verticalLabelPosition=middle;" parent="1" vertex="1">
          <mxGeometry x="600" y="630" width="190" height="50" as="geometry" />
        </mxCell>
        <mxCell id="PUoqzCfMoi5RGJm65JOl-22" value="" style="html=1;verticalAlign=bottom;labelBackgroundColor=none;startArrow=oval;startFill=0;startSize=8;endArrow=none;rounded=0;dashed=1;dashPattern=8 8;entryX=0.4;entryY=-0.08;entryDx=0;entryDy=0;entryPerimeter=0;" parent="1" target="PUoqzCfMoi5RGJm65JOl-21" edge="1">
          <mxGeometry x="-0.0549" y="19" relative="1" as="geometry">
            <mxPoint x="666.2007575757575" y="556.5" as="sourcePoint" />
            <mxPoint x="695.5" y="602" as="targetPoint" />
            <mxPoint x="-1" as="offset" />
          </mxGeometry>
        </mxCell>
        <mxCell id="PUoqzCfMoi5RGJm65JOl-23" style="edgeStyle=orthogonalEdgeStyle;rounded=0;orthogonalLoop=1;jettySize=auto;html=1;endArrow=open;endFill=0;endSize=10;entryX=0;entryY=0.5;entryDx=0;entryDy=0;exitX=0.5;exitY=1;exitDx=0;exitDy=0;" parent="1" source="PUoqzCfMoi5RGJm65JOl-8" target="PUoqzCfMoi5RGJm65JOl-6" edge="1">
          <mxGeometry relative="1" as="geometry">
            <mxPoint x="370" y="180" as="targetPoint" />
            <mxPoint x="137" y="180" as="sourcePoint" />
          </mxGeometry>
        </mxCell>
      </root>
    </mxGraphModel>
  </diagram>
</mxfile>
